{"title":"Elementary S02E14 HDTV x264 AAC E Subs [GWC].mp4","uid":9547553,"size":129355748,"categoryP":"video","categoryS":"tv_shows","magnet":"?xt=urn:btih:cf1c430f80d7d2ec1d102bfbea56417bcbb05a79&amp;dn=Elementary+S02E14+HDTV+x264+AAC+E+Subs+%5BGWC%5D.mp4&amp;tr=udp%3A%2F%2Ftracker.openbittorrent.com%3A80&amp;tr=udp%3A%2F%2Fopen.demonii.com%3A1337&amp;tr=udp%3A%2F%2Ftracker.coppersurfer.tk%3A6969&amp;tr=udp%3A%2F%2Fexodus.desync.com%3A6969","seeders":1,"leechers":1,"uploader":"canc232","files":1,"time":1391159921,"description":"Elementary S02E14 HDTV x264 AAC E Subs [GWC] \n\n\nSCREENS : &lt;a href=&quot;\nhttp://imageshack.com/a/img856/7008/a1xk.jpg&quot; rel=&quot;nofollow&quot; target=&quot;_NEW&quot;&gt;\nhttp://imageshack.com/a/img856/7008/a1xk.jpg&lt;/a&gt; &lt;a href=&quot;\nhttp://imageshack.com/a/img843/745/ei49.jpg&quot; rel=&quot;nofollow&quot; target=&quot;_NEW&quot;&gt;\nhttp://imageshack.com/a/img843/745/ei49.jpg&lt;/a&gt; &lt;a href=&quot;\nhttp://imageshack.com/a/img163/2229/j2j2.jpg&quot; rel=&quot;nofollow&quot; target=&quot;_NEW&quot;&gt;\nhttp://imageshack.com/a/img163/2229/j2j2.jpg&lt;/a&gt;\n\n\nMEDIA INFO :\nGeneral  \nFormat : MPEG-4 \nFormat profile : Base Media \nFile size : 123 MiB \nDuration : 43mn 35s \nOverall bit rate mode : Variable \nOverall bit rate : 396 Kbps \n\nVideo \nFormat : AVC \nFormat profile : &lt;a class=&quot;__cf_email__&quot; href=&quot;/cdn-cgi/l/email-protection&quot; data-cfemail=&quot;1d55747a755d512e332d&quot;&gt;[email&amp;#160;protected]&lt;/a&gt;&lt;script cf-hash='f9e31' type=&quot;text/javascript&quot;&gt;\n/* &lt;![CDATA[ */!function(){try{var t=&quot;currentScript&quot;in document?document.currentScript:function(){for(var t=document.getElementsByTagName(&quot;script&quot;),e=t.length;e--;)if(t[e].getAttribute(&quot;cf-hash&quot;))return t[e]}();if(t&amp;&amp;t.previousSibling){var e,r,n,i,c=t.previousSibling,a=c.getAttribute(&quot;data-cfemail&quot;);if(a){for(e=&quot;&quot;,r=parseInt(a.substr(0,2),16),n=2;a.length-n;n+=2)i=parseInt(a.substr(n,2),16)^r,e+=String.fromCharCode(i);e=document.createTextNode(e),c.parentNode.replaceChild(e,c)}}}catch(u){}}();/* ]]&gt; */&lt;/script&gt; \nFormat settings, CABAC : Yes \nFormat settings, ReFrames : 4 frames \nDuration : 43mn 34s \nBit rate : 332 Kbps \nMaximum bit rate : 2 131 Kbps \nWidth : 720 pixels \nHeight : 404 pixels \nDisplay aspect ratio : 16:9 \nFrame rate mode : Constant \nFrame rate : 23.976 fps \nStream size : 104 MiB (84%) \nTitle : Elementary S02E14 HDTV x264 AAC E Subs [GWC] \nWriting library : x264 core \n\nAudio \nFormat : AAC \nFormat profile : HE-AAC / LC \nDuration : 43mn 35s \nBit rate mode : Variable \nChannel(s) : 2 channels \nSampling rate : 48.0 KHz / 24.0 KHz \nStream size : 18.7 MiB (15%) \nLanguage : English \n\nText \nFormat : Timed Text \nDuration : 43mn 3s \nBit rate mode : Variable \nStream size : 35.2 KiB (0%) \nTitle : English Subtitle by elderman \nLanguage : English ","torrent":{"xt":"urn:btih:cf1c430f80d7d2ec1d102bfbea56417bcbb05a79","amp;dn":"Elementary+S02E14+HDTV+x264+AAC+E+Subs+%5BGWC%5D.mp4","amp;tr":["udp%3A%2F%2Ftracker.openbittorrent.com%3A80","udp%3A%2F%2Fopen.demonii.com%3A1337","udp%3A%2F%2Ftracker.coppersurfer.tk%3A6969","udp%3A%2F%2Fexodus.desync.com%3A6969"],"infoHash":"cf1c430f80d7d2ec1d102bfbea56417bcbb05a79","infoHashBuffer":{"type":"Buffer","data":[207,28,67,15,128,215,210,236,29,16,43,251,234,86,65,123,203,176,90,121]},"announce":[],"urlList":[]}}